HIERARCHY
ROOT Hips
{
  OFFSET 77.2624 94.2827 16.9493
  CHANNELS 6 Xposition Yposition Zposition Zrotation Xrotation Yrotation
  JOINT spine
  {
    OFFSET 0 7.80059 0.448573
    CHANNELS 3 Zrotation Xrotation Yrotation
    JOINT spine1
    {
      OFFSET 0 10.1364 0
      CHANNELS 3 Zrotation Xrotation Yrotation
      JOINT spine2
      {
        OFFSET 0 9.71251 0
        CHANNELS 3 Zrotation Xrotation Yrotation
        JOINT Neck
        {
          OFFSET 0 24.9361 1.18887
          CHANNELS 3 Zrotation Xrotation Yrotation
          JOINT Head
          {
            OFFSET 0 7.53384 0
            CHANNELS 3 Zrotation Xrotation Yrotation
            End Site
            {
              OFFSET 0 18.2361 -6.01402
            }
          }
        }
        JOINT RightShoulder
        {
          OFFSET -4.08965 10.4888 -0.569457
          CHANNELS 3 Zrotation Xrotation Yrotation
          JOINT RightArm
          {
            OFFSET 0 13.757 0
            CHANNELS 3 Zrotation Xrotation Yrotation
            JOINT RightArmRoll
            {
              OFFSET 0 6.94478 0
              CHANNELS 3 Zrotation Xrotation Yrotation
              JOINT RightForeArm
              {
                OFFSET 0 20.2277 0
                CHANNELS 3 Zrotation Xrotation Yrotation
                JOINT RightForeArmRoll
                {
                  OFFSET 0 7.79313 0
                  CHANNELS 3 Zrotation Xrotation Yrotation
                  JOINT RightHand
                  {
                    OFFSET 0 15.6391 0
                    CHANNELS 3 Zrotation Xrotation Yrotation
                    End Site
                    {
                      OFFSET 0 0 0
                    }
                  }
                }
              }
            }
          }
        }
        JOINT LeftShoulder
        {
          OFFSET 4.08965 10.4888 -0.569457
          CHANNELS 3 Zrotation Xrotation Yrotation
          JOINT LeftArm
          {
            OFFSET 0 13.757 0
            CHANNELS 3 Zrotation Xrotation Yrotation
            JOINT LeftArmRoll
            {
              OFFSET 0 6.94478 0
              CHANNELS 3 Zrotation Xrotation Yrotation
              JOINT LeftForeArm
              {
                OFFSET 0 20.2277 0
                CHANNELS 3 Zrotation Xrotation Yrotation
                JOINT LeftForeArmRoll
                {
                  OFFSET 0 7.79312 0
                  CHANNELS 3 Zrotation Xrotation Yrotation
                  JOINT LeftHand
                  {
                    OFFSET 0 15.6391 0
                    CHANNELS 3 Zrotation Xrotation Yrotation
                    End Site
                    {
                      OFFSET 0 0 0
                    }
                  }
                }
              }
            }
          }
        }
      }
    }
  }
  JOINT RightUpLeg
  {
    OFFSET -6.91415 -1.26788 -1.06358
    CHANNELS 3 Zrotation Xrotation Yrotation
    JOINT RightUpLegRoll
    {
      OFFSET 0 18.3378 0
      CHANNELS 3 Zrotation Xrotation Yrotation
      JOINT RightLeg
      {
        OFFSET 0 -22.7085 0
        CHANNELS 3 Zrotation Xrotation Yrotation
        JOINT RightLegRoll
        {
          OFFSET 0 22.7828 0
          CHANNELS 3 Zrotation Xrotation Yrotation
          JOINT RightFoot
          {
            OFFSET 0 18.9629 0
            CHANNELS 3 Zrotation Xrotation Yrotation
            JOINT RightToeBase
            {
              OFFSET 0 15.852 0
              CHANNELS 3 Zrotation Xrotation Yrotation
              End Site
              {
                OFFSET 0.00671906 7.67701 -0.884893
              }
            }
          }
        }
      }
    }
  }
  JOINT LeftUpLeg
  {
    OFFSET 6.91415 -1.26788 -1.06358
    CHANNELS 3 Zrotation Xrotation Yrotation
    JOINT LeftUpLegRoll
    {
      OFFSET 0 18.3379 0
      CHANNELS 3 Zrotation Xrotation Yrotation
      JOINT LeftLeg
      {
        OFFSET 0 22.7084 0
        CHANNELS 3 Zrotation Xrotation Yrotation
        JOINT LeftLegRoll
        {
          OFFSET 0 22.9934 0
          CHANNELS 3 Zrotation Xrotation Yrotation
          JOINT LeftFoot
          {
            OFFSET 0 18.7522 0
            CHANNELS 3 Zrotation Xrotation Yrotation
            JOINT LeftToeBase
            {
              OFFSET 0 15.852 0
              CHANNELS 3 Zrotation Xrotation Yrotation
              End Site
              {
                OFFSET -0.030112 7.67701 -0.884893
              }
            }
          }
        }
      }
    }
  }
}
MOTION
Frames: 5
Frame Time: 0.00208333
67.0779 93.5439 16.8702 -0.756016 1.24547 63.5095 -0.947656 -2.09262 0.389999 -1.87771 -0.190149 0.868251 -1.88864 1.45433 0.899858 -9.77512 4.88545 5.25753 8.01615 -7.39262 4.6587 50.7319 -9.16387 -5.57401 49.3098 70.2423 82.2069 4.60119e-006 2.62085e-006 1.83556e-006 167.892 44.0394 -150.166 -1.79811e-005 -3.68023e-005 -3.00743 8.03085 -4.95143 0.697347 -66.9362 -0.706137 1.35604 -84.2754 41.6021 -8.31192 2.67383e-006 2.76349e-007 7.73348e-007 -5.7646 22.6143 2.48013 8.89647e-006 -6.62491e-006 3.00516 -8.02902 -4.95143 -0.697687 174.542 -10.0162 4.81169 180 7.01446e-015 178.548 177.565 18.989 179.682 3.26106e-006 2.67689e-006 0.427786 -18.5359 68.2497 19.7493 7.54269 47.339 1.44647 177.888 18.4355 8.08176 4.54188e-006 -4.6773e-006 -1.34674 -6.52665 -17.3562 -0.872365 5.31032e-007 -5.43449e-006 -0.200166 32.2372 74.8899 -29.1929 -8.13064 25.233 3.48524 
67.1406 93.5384 16.8816 -0.764477 1.30161 63.7383 -0.948392 -2.06953 0.39937 -1.87929 -0.144129 0.887425 -1.89047 1.50034 0.919075 -10.4291 4.39443 5.10404 8.67967 -7.10209 4.51037 50.3389 -9.05463 -5.48574 49.5258 71.0666 81.4334 4.60119e-006 2.62085e-006 1.83556e-006 167.87 44.2912 -150.698 -1.79811e-005 -3.68023e-005 -3.00743 8.03085 -4.95143 0.697347 -67.4094 -0.725465 1.41804 -84.3771 41.5484 -8.13806 2.67383e-006 2.76349e-007 7.73348e-007 -5.8562 22.636 2.50577 8.89647e-006 -6.62491e-006 3.00516 -8.02902 -4.95143 -0.697687 174.504 -10.0342 4.82246 180 7.01445e-015 178.547 177.588 19.0092 179.674 3.26106e-006 2.67689e-006 0.423375 -18.5009 68.1986 19.7064 7.52689 47.4674 1.4767 177.761 18.435 8.1655 4.54188e-006 -4.6773e-006 -1.3529 -6.53243 -17.3612 -0.874731 5.31032e-007 -5.43449e-006 -0.199813 32.3783 74.9212 -29.2764 -8.13064 25.233 3.48524 
67.2514 93.5335 16.8788 -0.777448 1.35878 63.966 -0.948728 -2.0463 0.410231 -1.88015 -0.0978515 0.909548 -1.89163 1.54662 0.941229 -11.083 3.88972 4.94103 9.34077 -6.80149 4.35453 49.9444 -8.94156 -5.39383 49.7801 71.8779 80.5724 4.60119e-006 2.62085e-006 1.83556e-006 167.858 44.5654 -151.268 -1.79811e-005 -3.68023e-005 -3.00743 8.03085 -4.95143 0.697347 -67.8794 -0.741409 1.47727 -84.4808 41.495 -7.96676 2.67383e-006 2.76349e-007 7.73348e-007 -5.94479 22.6522 2.5301 8.89647e-006 -6.62491e-006 3.00516 -8.02902 -4.95143 -0.697687 174.467 -10.0476 4.83342 180 7.01445e-015 178.546 177.609 19.0298 179.668 3.26106e-006 2.67689e-006 0.419007 -18.4668 68.1485 19.6643 7.5111 47.5951 1.50664 177.635 18.44 8.24985 4.54188e-006 -4.6773e-006 -1.35896 -6.53682 -17.3682 -0.876842 5.31032e-007 -5.43449e-006 -0.199597 32.5163 74.9515 -29.3582 -8.13064 25.233 3.48524 
67.3339 93.5224 16.8698 -0.794383 1.41692 64.1923 -0.948735 -2.02288 0.422419 -1.88043 -0.0512046 0.9343 -1.89222 1.59326 0.966005 -11.7368 3.37288 4.76908 9.99899 -6.49207 4.19175 49.548 -8.82526 -5.29866 50.083 72.6758 79.6228 4.60119e-006 2.62085e-006 1.83556e-006 167.853 44.8632 -151.867 -1.79811e-005 -3.68023e-005 -3.00743 8.03085 -4.95143 0.697347 -68.3457 -0.754509 1.534 -84.5866 41.4418 -7.79839 2.67383e-006 2.76349e-007 7.73348e-007 -6.03009 22.6631 2.55307 8.89647e-006 -6.62491e-006 3.00516 -8.02902 -4.95143 -0.697687 174.429 -10.0568 4.84462 180 7.01444e-015 178.544 177.629 19.0508 179.661 3.26106e-006 2.67689e-006 0.4147 -18.4337 68.0995 19.6231 7.49528 47.7214 1.53645 177.509 18.4497 8.33461 4.54188e-006 -4.6773e-006 -1.36489 -6.54006 -17.3767 -0.878722 5.31032e-007 -5.43449e-006 -0.199486 32.6512 74.9808 -29.4383 -8.13064 25.233 3.48524 
67.4143 93.5183 16.8635 -0.814734 1.47601 64.417 -0.948482 -1.99921 0.435772 -1.88024 -0.00407782 0.96136 -1.89239 1.64038 0.993082 -12.3904 2.84545 4.58874 10.6539 -6.17506 4.0226 49.1492 -8.70633 -5.20058 50.4447 73.4601 78.5841 4.60119e-006 2.62085e-006 1.83556e-006 167.852 45.1859 -152.489 -1.79811e-005 -3.68023e-005 -3.00743 8.03085 -4.95143 0.697347 -68.8079 -0.765303 1.58849 -84.6944 41.389 -7.63334 2.67383e-006 2.76349e-007 7.73348e-007 -6.11182 22.6691 2.57467 8.89647e-006 -6.62491e-006 3.00516 -8.02902 -4.95143 -0.697687 174.39 -10.0622 4.85606 180 7.01444e-015 178.543 177.648 19.0721 179.655 3.26106e-006 2.67689e-006 0.410472 -18.4016 68.0518 19.583 7.47936 47.8459 1.56626 177.384 18.4634 8.41959 4.54188e-006 -4.6773e-006 -1.37069 -6.54241 -17.3863 -0.8804 5.31032e-007 -5.43449e-006 -0.199447 32.7829 75.0091 -29.5165 -8.13064 25.233 3.48524 
